<svg xmlns="http://www.w3.org/2000/svg" version="1.1" xmlns:xlink="http://www.w3.org/1999/xlink" xmlns:svgjs="http://svgjs.dev/svgjs" width="2000" height="1278" viewBox="0 0 2000 1278"><g transform="matrix(1,0,0,1,-2.574050260456488,-2.061290322580703)"><svg viewBox="0 0 388 248" data-background-color="#ffffff" preserveAspectRatio="xMidYMid meet" height="1278" width="2000" xmlns="http://www.w3.org/2000/svg" xmlns:xlink="http://www.w3.org/1999/xlink"><g id="tight-bounds" transform="matrix(1,0,0,1,0.49936575052856824,0.4000000000000057)"><svg viewBox="0 0 387.00126849894286 247.2" height="247.2" width="387.00126849894286"><g><svg viewBox="0 0 387.00126849894286 247.2" height="247.2" width="387.00126849894286"><g><svg viewBox="0 0 387.00126849894286 247.2" height="247.2" width="387.00126849894286"><g id="textblocktransform"><svg viewBox="0 0 387.00126849894286 247.2" height="247.2" width="387.00126849894286" id="textblock"><g><svg viewBox="0 0 387.00126849894286 247.2" height="247.2" width="387.00126849894286"><g transform="matrix(1,0,0,1,0,0)"><svg width="387.00126849894286" viewBox="-0.1 -46.19 72.30999999999999 46.19" height="247.2" data-palette-color="#ff0000"><path d="M-0.1-34.47L-0.1-34.47Q-0.1-34.86-0.07-35.77-0.05-36.67-0.05-37.67-0.05-38.67-0.02-39.58 0-40.48 0-40.82L0-40.82Q0.54-41.85 1.68-42.31 2.83-42.77 4.17-42.94 5.52-43.12 6.81-43.07 8.11-43.02 8.94-43.02L8.94-43.02Q10.01-43.02 11.45-42.92 12.89-42.82 14.33-42.55 15.77-42.29 17.19-41.77 18.6-41.26 19.7-40.45 20.8-39.65 21.46-38.5 22.12-37.35 22.12-35.79L22.12-35.79Q22.12-33.94 21.24-32.45 20.36-30.96 19.07-29.66 17.77-28.37 16.24-27.25 14.7-26.12 13.4-25.05 12.11-23.97 11.23-22.85 10.35-21.73 10.35-20.41L10.35-20.41Q10.35-20.31 10.42-20.14 10.5-19.97 10.5-19.92L10.5-19.92Q16.26-18.21 21.7-15.77 27.15-13.33 32.42-10.5L32.42-10.5Q32.57-10.4 32.74-10.13 32.91-9.86 33.06-9.5 33.2-9.13 33.35-8.84 33.5-8.54 33.5-8.35L33.5-8.35Q33.5-7.91 33.25-7.69 33.01-7.47 32.67-7.35 32.32-7.23 31.98-7.23 31.64-7.23 31.4-7.23L31.4-7.23Q28.76-7.23 26.15-8.37 23.54-9.52 20.9-10.94 18.26-12.35 15.55-13.53 12.84-14.7 9.91-14.7L9.91-14.7 8.35-14.7Q9.13-12.89 9.74-11.47 10.35-10.06 10.77-8.74 11.18-7.42 11.4-6.08 11.62-4.74 11.62-3.17L11.62-3.17Q11.62-2.83 11.62-2.37 11.62-1.9 11.57-1.42 11.52-0.93 11.28-0.54 11.04-0.15 10.5 0L10.5 0Q8.5-1.17 6.91-3.64 5.32-6.1 4.15-9.28 2.98-12.45 2.17-16.02 1.37-19.58 0.85-23.02 0.34-26.46 0.12-29.47-0.1-32.47-0.1-34.47ZM4.1-31.4L4.1-31.4Q4.1-30.76 4.03-29.76 3.96-28.76 4-27.71 4.05-26.66 4.32-25.71 4.59-24.76 5.22-24.07L5.22-24.07Q5.32-24.02 5.42-24.02L5.42-24.02Q5.47-23.97 5.66-23.97L5.66-23.97Q6.54-23.97 7.79-24.51 9.03-25.05 10.4-25.93 11.77-26.81 13.11-27.95 14.45-29.1 15.53-30.32 16.6-31.54 17.26-32.79 17.92-34.03 17.92-35.06L17.92-35.06Q17.92-36.04 17.19-36.74 16.46-37.45 15.43-37.89 14.4-38.33 13.31-38.53 12.21-38.72 11.52-38.72L11.52-38.72Q10.69-38.72 9.57-38.75 8.45-38.77 7.35-38.6 6.25-38.43 5.37-37.99 4.49-37.55 4.15-36.67L4.15-36.67Q4.15-36.38 4.15-35.64 4.15-34.91 4.15-34.06 4.15-33.2 4.13-32.47 4.1-31.74 4.1-31.4ZM62.74-8.35L62.2-8.35Q60.25-8.35 58.37-7.69 56.49-7.03 54.59-6.23 52.68-5.42 50.71-4.76 48.73-4.1 46.58-4.1L46.58-4.1Q43.7-4.1 41.6-5.22 39.5-6.35 38.13-8.23 36.77-10.11 36.11-12.62 35.45-15.14 35.45-17.92L35.45-17.92Q35.45-20.65 35.98-23.8 36.52-26.95 37.64-30.08 38.77-33.2 40.45-36.11 42.14-39.01 44.38-41.26 46.63-43.51 49.44-44.85 52.24-46.19 55.61-46.19L55.61-46.19Q57.96-46.19 59.93-45.36 61.91-44.53 63.52-43.09 65.13-41.65 66.35-39.77 67.58-37.89 68.38-35.77 69.19-33.64 69.6-31.45 70.02-29.25 70.02-27.25L70.02-27.25Q70.02-25.24 69.36-23.27 68.7-21.29 67.94-19.41 67.19-17.53 66.53-15.67 65.87-13.82 65.87-12.01L65.87-12.01 65.87-11.52Q66.4-10.89 67.45-9.81 68.5-8.74 69.58-7.45 70.65-6.15 71.43-4.71 72.21-3.27 72.21-1.95L72.21-1.95Q72.21-1.03 71.87-0.51 71.53 0 70.02 0L70.02 0 68.94-1.07Q68.6-1.46 67.72-2.49 66.84-3.52 65.87-4.69 64.89-5.86 63.99-6.88 63.08-7.91 62.74-8.35L62.74-8.35ZM39.6-17.68L39.6-17.68Q39.6-15.63 39.91-13.89 40.23-12.16 41.04-10.91 41.84-9.67 43.31-8.96 44.77-8.25 47.02-8.25L47.02-8.25Q47.6-8.25 48.7-8.35 49.8-8.45 51.1-8.67 52.39-8.89 53.73-9.23 55.08-9.57 56.15-10.13 57.22-10.69 57.93-11.4 58.64-12.11 58.64-13.09L58.64-13.09Q58.64-13.38 58.23-14.04 57.81-14.7 57.15-15.63 56.49-16.55 55.71-17.6 54.93-18.65 54.22-19.7 53.51-20.75 52.95-21.61 52.39-22.46 52.24-23.05L52.24-23.05Q52.59-23.93 53.15-24.05 53.71-24.17 54.39-24.17L54.39-24.17Q55.32-24.17 56-23.61 56.69-23.05 57.25-22.22 57.81-21.39 58.32-20.41 58.84-19.43 59.4-18.6 59.96-17.77 60.62-17.21 61.28-16.65 62.2-16.65L62.2-16.65Q63.13-16.65 63.79-17.36 64.45-18.07 64.87-19.14 65.28-20.21 65.5-21.53 65.72-22.85 65.82-24.07 65.92-25.29 65.94-26.29 65.96-27.29 65.96-27.73L65.96-27.73Q65.96-30.22 65.45-32.76 64.94-35.3 63.69-37.33 62.45-39.36 60.42-40.65 58.4-41.94 55.37-41.94L55.37-41.94Q53.07-41.94 50.97-40.75 48.87-39.55 47.12-37.57 45.36-35.6 43.97-33.06 42.58-30.52 41.6-27.81 40.62-25.1 40.11-22.46 39.6-19.82 39.6-17.68Z" opacity="1" transform="matrix(1,0,0,1,0,0)" fill="#000000" class="wordmark-text-0" data-fill-palette-color="primary" id="text-0"></path></svg></g></svg></g></svg></g></svg></g><g></g></svg></g><defs></defs></svg><rect width="387.00126849894286" height="247.2" fill="none" stroke="none" visibility="hidden"></rect></g></svg></g></svg>